<?xml version="1.0" encoding="UTF-8" standalone="no"?>
<!-- Created with Inkscape (http://www.inkscape.org/) -->

<svg
   xmlns:dc="http://purl.org/dc/elements/1.1/"
   xmlns:cc="http://creativecommons.org/ns#"
   xmlns:rdf="http://www.w3.org/1999/02/22-rdf-syntax-ns#"
   xmlns:svg="http://www.w3.org/2000/svg"
   xmlns="http://www.w3.org/2000/svg"
   xmlns:sodipodi="http://sodipodi.sourceforge.net/DTD/sodipodi-0.dtd"
   xmlns:inkscape="http://www.inkscape.org/namespaces/inkscape"
   width="128"
   height="128"
   id="svg2"
   version="1.1"
   inkscape:version="0.48.4 r9939"
   sodipodi:docname="circles.svg"
   inkscape:export-filename="/home/andrew/Git/new/experiments/aframe/01-texture/circles-bad-size.png"
   inkscape:export-xdpi="105.47"
   inkscape:export-ydpi="105.47">
  <defs
     id="defs4" />
  <sodipodi:namedview
     id="base"
     pagecolor="#ffffff"
     bordercolor="#666666"
     borderopacity="1.0"
     inkscape:pageopacity="0.0"
     inkscape:pageshadow="2"
     inkscape:zoom="2.9941553"
     inkscape:cx="87.691619"
     inkscape:cy="57.829793"
     inkscape:document-units="px"
     inkscape:current-layer="layer1"
     showgrid="true"
     inkscape:window-width="1362"
     inkscape:window-height="729"
     inkscape:window-x="0"
     inkscape:window-y="18"
     inkscape:window-maximized="0">
    <inkscape:grid
       type="xygrid"
       id="grid2985"
       empspacing="4"
       visible="true"
       enabled="true"
       snapvisiblegridlinesonly="true" />
  </sodipodi:namedview>
  <metadata
     id="metadata7">
    <rdf:RDF>
      <cc:Work
         rdf:about="">
        <dc:format>image/svg+xml</dc:format>
        <dc:type
           rdf:resource="http://purl.org/dc/dcmitype/StillImage" />
        <dc:title></dc:title>
      </cc:Work>
    </rdf:RDF>
  </metadata>
  <g
     inkscape:label="Layer 1"
     inkscape:groupmode="layer"
     id="layer1"
     transform="translate(0,-924.36218)">
    <path
       sodipodi:type="arc"
       style="fill:#ff0000;fill-opacity:1;stroke:none"
       id="path2987"
       sodipodi:cx="8"
       sodipodi:cy="8"
       sodipodi:rx="8"
       sodipodi:ry="8"
       d="M 16,8 A 8,8 0 1 1 0,8 8,8 0 1 1 16,8 z"
       transform="translate(0,924.36218)"
       inkscape:tile-cx="8"
       inkscape:tile-cy="8"
       inkscape:tile-w="16"
       inkscape:tile-h="16"
       inkscape:tile-x0="0"
       inkscape:tile-y0="0" />
    <path
       inkscape:tile-y0="0"
       inkscape:tile-x0="0"
       transform="translate(16,924.36218)"
       d="M 16,8 A 8,8 0 1 1 0,8 8,8 0 1 1 16,8 z"
       sodipodi:ry="8"
       sodipodi:rx="8"
       sodipodi:cy="8"
       sodipodi:cx="8"
       id="use3033"
       style="fill:#0000ff;fill-opacity:1;stroke:none"
       sodipodi:type="arc" />
    <path
       inkscape:tile-y0="0"
       inkscape:tile-x0="0"
       transform="translate(32,924.36218)"
       d="M 16,8 A 8,8 0 1 1 0,8 8,8 0 1 1 16,8 z"
       sodipodi:ry="8"
       sodipodi:rx="8"
       sodipodi:cy="8"
       sodipodi:cx="8"
       id="use3049"
       style="fill:#00ff00;fill-opacity:1;stroke:none"
       sodipodi:type="arc" />
    <path
       inkscape:tile-y0="0"
       inkscape:tile-x0="0"
       transform="translate(48,924.36218)"
       d="M 16,8 A 8,8 0 1 1 0,8 8,8 0 1 1 16,8 z"
       sodipodi:ry="8"
       sodipodi:rx="8"
       sodipodi:cy="8"
       sodipodi:cx="8"
       id="use3065"
       style="fill:#ffff00;fill-opacity:1;stroke:none"
       sodipodi:type="arc" />
    <path
       inkscape:tile-y0="0"
       inkscape:tile-x0="0"
       inkscape:tile-h="16"
       inkscape:tile-w="16"
       inkscape:tile-cy="8"
       inkscape:tile-cx="8"
       transform="translate(0,924.36218)"
       d="M 16,8 A 8,8 0 1 1 0,8 8,8 0 1 1 16,8 z"
       sodipodi:ry="8"
       sodipodi:rx="8"
       sodipodi:cy="8"
       sodipodi:cx="8"
       id="path3361"
       style="fill:#ff0000;fill-opacity:1;stroke:none"
       sodipodi:type="arc" />
    <path
       sodipodi:type="arc"
       style="fill:#0000ff;fill-opacity:1;stroke:none"
       id="path3363"
       sodipodi:cx="8"
       sodipodi:cy="8"
       sodipodi:rx="8"
       sodipodi:ry="8"
       d="M 16,8 A 8,8 0 1 1 0,8 8,8 0 1 1 16,8 z"
       transform="translate(16,924.36218)"
       inkscape:tile-x0="0"
       inkscape:tile-y0="0" />
    <path
       sodipodi:type="arc"
       style="fill:#00ff00;fill-opacity:1;stroke:none"
       id="path3365"
       sodipodi:cx="8"
       sodipodi:cy="8"
       sodipodi:rx="8"
       sodipodi:ry="8"
       d="M 16,8 A 8,8 0 1 1 0,8 8,8 0 1 1 16,8 z"
       transform="translate(32,924.36218)"
       inkscape:tile-x0="0"
       inkscape:tile-y0="0" />
    <path
       sodipodi:type="arc"
       style="fill:#ffff00;fill-opacity:1;stroke:none"
       id="path3367"
       sodipodi:cx="8"
       sodipodi:cy="8"
       sodipodi:rx="8"
       sodipodi:ry="8"
       d="M 16,8 A 8,8 0 1 1 0,8 8,8 0 1 1 16,8 z"
       transform="translate(48,924.36218)"
       inkscape:tile-x0="0"
       inkscape:tile-y0="0" />
    <path
       inkscape:tile-y0="0"
       inkscape:tile-x0="0"
       inkscape:tile-h="16"
       inkscape:tile-w="16"
       inkscape:tile-cy="8"
       inkscape:tile-cx="8"
       transform="translate(0,940.36218)"
       d="M 16,8 A 8,8 0 1 1 0,8 8,8 0 1 1 16,8 z"
       sodipodi:ry="8"
       sodipodi:rx="8"
       sodipodi:cy="8"
       sodipodi:cx="8"
       id="path3371"
       style="fill:#ff0000;fill-opacity:1;stroke:none"
       sodipodi:type="arc" />
    <path
       sodipodi:type="arc"
       style="fill:#0000ff;fill-opacity:0.76862746;stroke:none"
       id="path3373"
       sodipodi:cx="8"
       sodipodi:cy="8"
       sodipodi:rx="8"
       sodipodi:ry="8"
       d="M 16,8 A 8,8 0 1 1 0,8 8,8 0 1 1 16,8 z"
       transform="translate(16,940.36218)"
       inkscape:tile-x0="0"
       inkscape:tile-y0="0" />
    <path
       sodipodi:type="arc"
       style="fill:#00ff00;fill-opacity:1;stroke:none"
       id="path3375"
       sodipodi:cx="8"
       sodipodi:cy="8"
       sodipodi:rx="8"
       sodipodi:ry="8"
       d="M 16,8 A 8,8 0 1 1 0,8 8,8 0 1 1 16,8 z"
       transform="translate(32,940.36218)"
       inkscape:tile-x0="0"
       inkscape:tile-y0="0" />
    <path
       sodipodi:type="arc"
       style="fill:#ffff00;fill-opacity:1;stroke:none"
       id="path3377"
       sodipodi:cx="8"
       sodipodi:cy="8"
       sodipodi:rx="8"
       sodipodi:ry="8"
       d="M 16,8 A 8,8 0 1 1 0,8 8,8 0 1 1 16,8 z"
       transform="translate(48,940.36218)"
       inkscape:tile-x0="0"
       inkscape:tile-y0="0" />
    <path
       inkscape:tile-y0="0"
       inkscape:tile-x0="0"
       inkscape:tile-h="16"
       inkscape:tile-w="16"
       inkscape:tile-cy="8"
       inkscape:tile-cx="8"
       transform="translate(0,956.36218)"
       d="M 16,8 A 8,8 0 1 1 0,8 8,8 0 1 1 16,8 z"
       sodipodi:ry="8"
       sodipodi:rx="8"
       sodipodi:cy="8"
       sodipodi:cx="8"
       id="path3381"
       style="fill:#ff0000;fill-opacity:1;stroke:none"
       sodipodi:type="arc" />
    <path
       sodipodi:type="arc"
       style="fill:#0000ff;fill-opacity:1;stroke:none"
       id="path3383"
       sodipodi:cx="8"
       sodipodi:cy="8"
       sodipodi:rx="8"
       sodipodi:ry="8"
       d="M 16,8 A 8,8 0 1 1 0,8 8,8 0 1 1 16,8 z"
       transform="translate(16,956.36218)"
       inkscape:tile-x0="0"
       inkscape:tile-y0="0" />
    <path
       sodipodi:type="arc"
       style="fill:#00ff00;fill-opacity:0.50196081;stroke:none"
       id="path3385"
       sodipodi:cx="8"
       sodipodi:cy="8"
       sodipodi:rx="8"
       sodipodi:ry="8"
       d="M 16,8 A 8,8 0 1 1 0,8 8,8 0 1 1 16,8 z"
       transform="translate(32,956.36218)"
       inkscape:tile-x0="0"
       inkscape:tile-y0="0" />
    <path
       sodipodi:type="arc"
       style="fill:#ffff00;fill-opacity:1;stroke:none"
       id="path3387"
       sodipodi:cx="8"
       sodipodi:cy="8"
       sodipodi:rx="8"
       sodipodi:ry="8"
       d="M 16,8 A 8,8 0 1 1 0,8 8,8 0 1 1 16,8 z"
       transform="translate(48,956.36218)"
       inkscape:tile-x0="0"
       inkscape:tile-y0="0" />
    <path
       inkscape:tile-y0="0"
       inkscape:tile-x0="0"
       inkscape:tile-h="16"
       inkscape:tile-w="16"
       inkscape:tile-cy="8"
       inkscape:tile-cx="8"
       transform="translate(0,972.36218)"
       d="M 16,8 A 8,8 0 1 1 0,8 8,8 0 1 1 16,8 z"
       sodipodi:ry="8"
       sodipodi:rx="8"
       sodipodi:cy="8"
       sodipodi:cx="8"
       id="path3391"
       style="fill:#ff0000;fill-opacity:1;stroke:none"
       sodipodi:type="arc" />
    <path
       sodipodi:type="arc"
       style="fill:#0000ff;fill-opacity:1;stroke:none"
       id="path3393"
       sodipodi:cx="8"
       sodipodi:cy="8"
       sodipodi:rx="8"
       sodipodi:ry="8"
       d="M 16,8 A 8,8 0 1 1 0,8 8,8 0 1 1 16,8 z"
       transform="translate(16,972.36218)"
       inkscape:tile-x0="0"
       inkscape:tile-y0="0" />
    <path
       sodipodi:type="arc"
       style="fill:#00ff00;fill-opacity:1;stroke:none"
       id="path3395"
       sodipodi:cx="8"
       sodipodi:cy="8"
       sodipodi:rx="8"
       sodipodi:ry="8"
       d="M 16,8 A 8,8 0 1 1 0,8 8,8 0 1 1 16,8 z"
       transform="translate(32,972.36218)"
       inkscape:tile-x0="0"
       inkscape:tile-y0="0" />
    <path
       sodipodi:type="arc"
       style="fill:#ffff00;fill-opacity:0.3764706;stroke:none"
       id="path3397"
       sodipodi:cx="8"
       sodipodi:cy="8"
       sodipodi:rx="8"
       sodipodi:ry="8"
       d="M 16,8 A 8,8 0 1 1 0,8 8,8 0 1 1 16,8 z"
       transform="translate(48,972.36218)"
       inkscape:tile-x0="0"
       inkscape:tile-y0="0" />
    <path
       inkscape:tile-y0="0"
       inkscape:tile-x0="0"
       inkscape:tile-h="16"
       inkscape:tile-w="16"
       inkscape:tile-cy="8"
       inkscape:tile-cx="8"
       transform="translate(0,988.36218)"
       d="M 16,8 A 8,8 0 1 1 0,8 8,8 0 1 1 16,8 z"
       sodipodi:ry="8"
       sodipodi:rx="8"
       sodipodi:cy="8"
       sodipodi:cx="8"
       id="path3401"
       style="fill:#ff0000;fill-opacity:1;stroke:none"
       sodipodi:type="arc" />
    <path
       sodipodi:type="arc"
       style="fill:#0000ff;fill-opacity:1;stroke:none"
       id="path3403"
       sodipodi:cx="8"
       sodipodi:cy="8"
       sodipodi:rx="8"
       sodipodi:ry="8"
       d="M 16,8 A 8,8 0 1 1 0,8 8,8 0 1 1 16,8 z"
       transform="translate(16,988.36218)"
       inkscape:tile-x0="0"
       inkscape:tile-y0="0" />
    <path
       sodipodi:type="arc"
       style="fill:#00ff00;fill-opacity:1;stroke:none"
       id="path3405"
       sodipodi:cx="8"
       sodipodi:cy="8"
       sodipodi:rx="8"
       sodipodi:ry="8"
       d="M 16,8 A 8,8 0 1 1 0,8 8,8 0 1 1 16,8 z"
       transform="translate(32,988.36218)"
       inkscape:tile-x0="0"
       inkscape:tile-y0="0" />
    <path
       sodipodi:type="arc"
       style="fill:#ffff00;fill-opacity:1;stroke:none"
       id="path3407"
       sodipodi:cx="8"
       sodipodi:cy="8"
       sodipodi:rx="8"
       sodipodi:ry="8"
       d="M 16,8 A 8,8 0 1 1 0,8 8,8 0 1 1 16,8 z"
       transform="translate(48,988.36218)"
       inkscape:tile-x0="0"
       inkscape:tile-y0="0" />
    <path
       inkscape:tile-y0="0"
       inkscape:tile-x0="0"
       inkscape:tile-h="16"
       inkscape:tile-w="16"
       inkscape:tile-cy="8"
       inkscape:tile-cx="8"
       transform="translate(0,1004.3622)"
       d="M 16,8 A 8,8 0 1 1 0,8 8,8 0 1 1 16,8 z"
       sodipodi:ry="8"
       sodipodi:rx="8"
       sodipodi:cy="8"
       sodipodi:cx="8"
       id="path3411"
       style="fill:#ff0000;fill-opacity:1;stroke:none"
       sodipodi:type="arc" />
    <path
       sodipodi:type="arc"
       style="fill:#0000ff;fill-opacity:1;stroke:none"
       id="path3413"
       sodipodi:cx="8"
       sodipodi:cy="8"
       sodipodi:rx="8"
       sodipodi:ry="8"
       d="M 16,8 A 8,8 0 1 1 0,8 8,8 0 1 1 16,8 z"
       transform="translate(16,1004.3622)"
       inkscape:tile-x0="0"
       inkscape:tile-y0="0" />
    <path
       sodipodi:type="arc"
       style="fill:#00ff00;fill-opacity:1;stroke:none"
       id="path3415"
       sodipodi:cx="8"
       sodipodi:cy="8"
       sodipodi:rx="8"
       sodipodi:ry="8"
       d="M 16,8 A 8,8 0 1 1 0,8 8,8 0 1 1 16,8 z"
       transform="translate(32,1004.3622)"
       inkscape:tile-x0="0"
       inkscape:tile-y0="0" />
    <path
       sodipodi:type="arc"
       style="fill:#ffff00;fill-opacity:1;stroke:none"
       id="path3417"
       sodipodi:cx="8"
       sodipodi:cy="8"
       sodipodi:rx="8"
       sodipodi:ry="8"
       d="M 16,8 A 8,8 0 1 1 0,8 8,8 0 1 1 16,8 z"
       transform="translate(48,1004.3622)"
       inkscape:tile-x0="0"
       inkscape:tile-y0="0" />
    <path
       inkscape:tile-y0="0"
       inkscape:tile-x0="0"
       inkscape:tile-h="16"
       inkscape:tile-w="16"
       inkscape:tile-cy="8"
       inkscape:tile-cx="8"
       transform="translate(0,1020.3622)"
       d="M 16,8 A 8,8 0 1 1 0,8 8,8 0 1 1 16,8 z"
       sodipodi:ry="8"
       sodipodi:rx="8"
       sodipodi:cy="8"
       sodipodi:cx="8"
       id="path3421"
       style="fill:#ff0000;fill-opacity:1;stroke:none"
       sodipodi:type="arc" />
    <path
       sodipodi:type="arc"
       style="fill:#0000ff;fill-opacity:1;stroke:none"
       id="path3423"
       sodipodi:cx="8"
       sodipodi:cy="8"
       sodipodi:rx="8"
       sodipodi:ry="8"
       d="M 16,8 A 8,8 0 1 1 0,8 8,8 0 1 1 16,8 z"
       transform="translate(16,1020.3622)"
       inkscape:tile-x0="0"
       inkscape:tile-y0="0" />
    <path
       sodipodi:type="arc"
       style="fill:#00ff00;fill-opacity:1;stroke:none"
       id="path3425"
       sodipodi:cx="8"
       sodipodi:cy="8"
       sodipodi:rx="8"
       sodipodi:ry="8"
       d="M 16,8 A 8,8 0 1 1 0,8 8,8 0 1 1 16,8 z"
       transform="translate(32,1020.3622)"
       inkscape:tile-x0="0"
       inkscape:tile-y0="0" />
    <path
       sodipodi:type="arc"
       style="fill:#ffff00;fill-opacity:1;stroke:none"
       id="path3427"
       sodipodi:cx="8"
       sodipodi:cy="8"
       sodipodi:rx="8"
       sodipodi:ry="8"
       d="M 16,8 A 8,8 0 1 1 0,8 8,8 0 1 1 16,8 z"
       transform="translate(48,1020.3622)"
       inkscape:tile-x0="0"
       inkscape:tile-y0="0" />
    <path
       inkscape:tile-y0="0"
       inkscape:tile-x0="0"
       inkscape:tile-h="16"
       inkscape:tile-w="16"
       inkscape:tile-cy="8"
       inkscape:tile-cx="8"
       transform="translate(0,1036.3622)"
       d="M 16,8 A 8,8 0 1 1 0,8 8,8 0 1 1 16,8 z"
       sodipodi:ry="8"
       sodipodi:rx="8"
       sodipodi:cy="8"
       sodipodi:cx="8"
       id="path3431"
       style="fill:#ff0000;fill-opacity:1;stroke:none"
       sodipodi:type="arc" />
    <path
       sodipodi:type="arc"
       style="fill:#0000ff;fill-opacity:1;stroke:none"
       id="path3433"
       sodipodi:cx="8"
       sodipodi:cy="8"
       sodipodi:rx="8"
       sodipodi:ry="8"
       d="M 16,8 A 8,8 0 1 1 0,8 8,8 0 1 1 16,8 z"
       transform="translate(16,1036.3622)"
       inkscape:tile-x0="0"
       inkscape:tile-y0="0" />
    <path
       sodipodi:type="arc"
       style="fill:#00ff00;fill-opacity:1;stroke:none"
       id="path3435"
       sodipodi:cx="8"
       sodipodi:cy="8"
       sodipodi:rx="8"
       sodipodi:ry="8"
       d="M 16,8 A 8,8 0 1 1 0,8 8,8 0 1 1 16,8 z"
       transform="translate(32,1036.3622)"
       inkscape:tile-x0="0"
       inkscape:tile-y0="0" />
    <path
       sodipodi:type="arc"
       style="fill:#ffff00;fill-opacity:1;stroke:none"
       id="path3437"
       sodipodi:cx="8"
       sodipodi:cy="8"
       sodipodi:rx="8"
       sodipodi:ry="8"
       d="M 16,8 A 8,8 0 1 1 0,8 8,8 0 1 1 16,8 z"
       transform="translate(48,1036.3622)"
       inkscape:tile-x0="0"
       inkscape:tile-y0="0" />
    <path
       inkscape:tile-y0="0"
       inkscape:tile-x0="0"
       inkscape:tile-h="16"
       inkscape:tile-w="16"
       inkscape:tile-cy="8"
       inkscape:tile-cx="8"
       transform="translate(64,924.36218)"
       d="M 16,8 A 8,8 0 1 1 0,8 8,8 0 1 1 16,8 z"
       sodipodi:ry="8"
       sodipodi:rx="8"
       sodipodi:cy="8"
       sodipodi:cx="8"
       id="path3441"
       style="fill:#ff0000;fill-opacity:1;stroke:none"
       sodipodi:type="arc" />
    <path
       sodipodi:type="arc"
       style="fill:#0000ff;fill-opacity:1;stroke:none"
       id="path3443"
       sodipodi:cx="8"
       sodipodi:cy="8"
       sodipodi:rx="8"
       sodipodi:ry="8"
       d="M 16,8 A 8,8 0 1 1 0,8 8,8 0 1 1 16,8 z"
       transform="translate(80,924.36218)"
       inkscape:tile-x0="0"
       inkscape:tile-y0="0" />
    <path
       sodipodi:type="arc"
       style="fill:#00ff00;fill-opacity:1;stroke:none"
       id="path3445"
       sodipodi:cx="8"
       sodipodi:cy="8"
       sodipodi:rx="8"
       sodipodi:ry="8"
       d="M 16,8 A 8,8 0 1 1 0,8 8,8 0 1 1 16,8 z"
       transform="translate(96,924.36218)"
       inkscape:tile-x0="0"
       inkscape:tile-y0="0" />
    <path
       sodipodi:type="arc"
       style="fill:#ffff00;fill-opacity:1;stroke:none"
       id="path3447"
       sodipodi:cx="8"
       sodipodi:cy="8"
       sodipodi:rx="8"
       sodipodi:ry="8"
       d="M 16,8 A 8,8 0 1 1 0,8 8,8 0 1 1 16,8 z"
       transform="translate(112,924.36218)"
       inkscape:tile-x0="0"
       inkscape:tile-y0="0" />
    <path
       inkscape:tile-y0="0"
       inkscape:tile-x0="0"
       inkscape:tile-h="16"
       inkscape:tile-w="16"
       inkscape:tile-cy="8"
       inkscape:tile-cx="8"
       transform="translate(64,940.36218)"
       d="M 16,8 A 8,8 0 1 1 0,8 8,8 0 1 1 16,8 z"
       sodipodi:ry="8"
       sodipodi:rx="8"
       sodipodi:cy="8"
       sodipodi:cx="8"
       id="path3451"
       style="fill:#ff0000;fill-opacity:1;stroke:none"
       sodipodi:type="arc" />
    <path
       sodipodi:type="arc"
       style="fill:#0000ff;fill-opacity:1;stroke:none"
       id="path3453"
       sodipodi:cx="8"
       sodipodi:cy="8"
       sodipodi:rx="8"
       sodipodi:ry="8"
       d="M 16,8 A 8,8 0 1 1 0,8 8,8 0 1 1 16,8 z"
       transform="translate(80,940.36218)"
       inkscape:tile-x0="0"
       inkscape:tile-y0="0" />
    <path
       sodipodi:type="arc"
       style="fill:#00ff00;fill-opacity:1;stroke:none"
       id="path3455"
       sodipodi:cx="8"
       sodipodi:cy="8"
       sodipodi:rx="8"
       sodipodi:ry="8"
       d="M 16,8 A 8,8 0 1 1 0,8 8,8 0 1 1 16,8 z"
       transform="translate(96,940.36218)"
       inkscape:tile-x0="0"
       inkscape:tile-y0="0" />
    <path
       sodipodi:type="arc"
       style="fill:#ffff00;fill-opacity:1;stroke:none"
       id="path3457"
       sodipodi:cx="8"
       sodipodi:cy="8"
       sodipodi:rx="8"
       sodipodi:ry="8"
       d="M 16,8 A 8,8 0 1 1 0,8 8,8 0 1 1 16,8 z"
       transform="translate(112,940.36218)"
       inkscape:tile-x0="0"
       inkscape:tile-y0="0" />
    <path
       inkscape:tile-y0="0"
       inkscape:tile-x0="0"
       inkscape:tile-h="16"
       inkscape:tile-w="16"
       inkscape:tile-cy="8"
       inkscape:tile-cx="8"
       transform="translate(64,956.36218)"
       d="M 16,8 A 8,8 0 1 1 0,8 8,8 0 1 1 16,8 z"
       sodipodi:ry="8"
       sodipodi:rx="8"
       sodipodi:cy="8"
       sodipodi:cx="8"
       id="path3461"
       style="fill:#ff0000;fill-opacity:1;stroke:none"
       sodipodi:type="arc" />
    <path
       sodipodi:type="arc"
       style="fill:#0000ff;fill-opacity:1;stroke:none"
       id="path3463"
       sodipodi:cx="8"
       sodipodi:cy="8"
       sodipodi:rx="8"
       sodipodi:ry="8"
       d="M 16,8 A 8,8 0 1 1 0,8 8,8 0 1 1 16,8 z"
       transform="translate(80,956.36218)"
       inkscape:tile-x0="0"
       inkscape:tile-y0="0" />
    <path
       sodipodi:type="arc"
       style="fill:#00ff00;fill-opacity:1;stroke:none"
       id="path3465"
       sodipodi:cx="8"
       sodipodi:cy="8"
       sodipodi:rx="8"
       sodipodi:ry="8"
       d="M 16,8 A 8,8 0 1 1 0,8 8,8 0 1 1 16,8 z"
       transform="translate(96,956.36218)"
       inkscape:tile-x0="0"
       inkscape:tile-y0="0" />
    <path
       sodipodi:type="arc"
       style="fill:#ffff00;fill-opacity:1;stroke:none"
       id="path3467"
       sodipodi:cx="8"
       sodipodi:cy="8"
       sodipodi:rx="8"
       sodipodi:ry="8"
       d="M 16,8 A 8,8 0 1 1 0,8 8,8 0 1 1 16,8 z"
       transform="translate(112,956.36218)"
       inkscape:tile-x0="0"
       inkscape:tile-y0="0" />
    <path
       inkscape:tile-y0="0"
       inkscape:tile-x0="0"
       inkscape:tile-h="16"
       inkscape:tile-w="16"
       inkscape:tile-cy="8"
       inkscape:tile-cx="8"
       transform="translate(64,972.36218)"
       d="M 16,8 A 8,8 0 1 1 0,8 8,8 0 1 1 16,8 z"
       sodipodi:ry="8"
       sodipodi:rx="8"
       sodipodi:cy="8"
       sodipodi:cx="8"
       id="path3471"
       style="fill:#ff0000;fill-opacity:1;stroke:none"
       sodipodi:type="arc" />
    <path
       sodipodi:type="arc"
       style="fill:#0000ff;fill-opacity:1;stroke:none"
       id="path3473"
       sodipodi:cx="8"
       sodipodi:cy="8"
       sodipodi:rx="8"
       sodipodi:ry="8"
       d="M 16,8 A 8,8 0 1 1 0,8 8,8 0 1 1 16,8 z"
       transform="translate(80,972.36218)"
       inkscape:tile-x0="0"
       inkscape:tile-y0="0" />
    <path
       sodipodi:type="arc"
       style="fill:#00ff00;fill-opacity:1;stroke:none"
       id="path3475"
       sodipodi:cx="8"
       sodipodi:cy="8"
       sodipodi:rx="8"
       sodipodi:ry="8"
       d="M 16,8 A 8,8 0 1 1 0,8 8,8 0 1 1 16,8 z"
       transform="translate(96,972.36218)"
       inkscape:tile-x0="0"
       inkscape:tile-y0="0" />
    <path
       sodipodi:type="arc"
       style="fill:#ffff00;fill-opacity:1;stroke:none"
       id="path3477"
       sodipodi:cx="8"
       sodipodi:cy="8"
       sodipodi:rx="8"
       sodipodi:ry="8"
       d="M 16,8 A 8,8 0 1 1 0,8 8,8 0 1 1 16,8 z"
       transform="translate(112,972.36218)"
       inkscape:tile-x0="0"
       inkscape:tile-y0="0" />
    <path
       inkscape:tile-y0="0"
       inkscape:tile-x0="0"
       inkscape:tile-h="16"
       inkscape:tile-w="16"
       inkscape:tile-cy="8"
       inkscape:tile-cx="8"
       transform="translate(64,988.36218)"
       d="M 16,8 A 8,8 0 1 1 0,8 8,8 0 1 1 16,8 z"
       sodipodi:ry="8"
       sodipodi:rx="8"
       sodipodi:cy="8"
       sodipodi:cx="8"
       id="path3481"
       style="fill:#ff0000;fill-opacity:0.25098041;stroke:none"
       sodipodi:type="arc" />
    <path
       sodipodi:type="arc"
       style="fill:#0000ff;fill-opacity:1;stroke:none"
       id="path3483"
       sodipodi:cx="8"
       sodipodi:cy="8"
       sodipodi:rx="8"
       sodipodi:ry="8"
       d="M 16,8 A 8,8 0 1 1 0,8 8,8 0 1 1 16,8 z"
       transform="translate(80,988.36218)"
       inkscape:tile-x0="0"
       inkscape:tile-y0="0" />
    <path
       sodipodi:type="arc"
       style="fill:#00ff00;fill-opacity:1;stroke:none"
       id="path3485"
       sodipodi:cx="8"
       sodipodi:cy="8"
       sodipodi:rx="8"
       sodipodi:ry="8"
       d="M 16,8 A 8,8 0 1 1 0,8 8,8 0 1 1 16,8 z"
       transform="translate(96,988.36218)"
       inkscape:tile-x0="0"
       inkscape:tile-y0="0" />
    <path
       sodipodi:type="arc"
       style="fill:#ffff00;fill-opacity:1;stroke:none"
       id="path3487"
       sodipodi:cx="8"
       sodipodi:cy="8"
       sodipodi:rx="8"
       sodipodi:ry="8"
       d="M 16,8 A 8,8 0 1 1 0,8 8,8 0 1 1 16,8 z"
       transform="translate(112,988.36218)"
       inkscape:tile-x0="0"
       inkscape:tile-y0="0" />
    <path
       inkscape:tile-y0="0"
       inkscape:tile-x0="0"
       inkscape:tile-h="16"
       inkscape:tile-w="16"
       inkscape:tile-cy="8"
       inkscape:tile-cx="8"
       transform="translate(64,1004.3622)"
       d="M 16,8 A 8,8 0 1 1 0,8 8,8 0 1 1 16,8 z"
       sodipodi:ry="8"
       sodipodi:rx="8"
       sodipodi:cy="8"
       sodipodi:cx="8"
       id="path3491"
       style="fill:#ff0000;fill-opacity:1;stroke:none"
       sodipodi:type="arc" />
    <path
       sodipodi:type="arc"
       style="fill:#0000ff;fill-opacity:0.1254902;stroke:none"
       id="path3493"
       sodipodi:cx="8"
       sodipodi:cy="8"
       sodipodi:rx="8"
       sodipodi:ry="8"
       d="M 16,8 A 8,8 0 1 1 0,8 8,8 0 1 1 16,8 z"
       transform="translate(80,1004.3622)"
       inkscape:tile-x0="0"
       inkscape:tile-y0="0" />
    <path
       sodipodi:type="arc"
       style="fill:#00ff00;fill-opacity:1;stroke:none"
       id="path3495"
       sodipodi:cx="8"
       sodipodi:cy="8"
       sodipodi:rx="8"
       sodipodi:ry="8"
       d="M 16,8 A 8,8 0 1 1 0,8 8,8 0 1 1 16,8 z"
       transform="translate(96,1004.3622)"
       inkscape:tile-x0="0"
       inkscape:tile-y0="0" />
    <path
       sodipodi:type="arc"
       style="fill:#ffff00;fill-opacity:1;stroke:none"
       id="path3497"
       sodipodi:cx="8"
       sodipodi:cy="8"
       sodipodi:rx="8"
       sodipodi:ry="8"
       d="M 16,8 A 8,8 0 1 1 0,8 8,8 0 1 1 16,8 z"
       transform="translate(112,1004.3622)"
       inkscape:tile-x0="0"
       inkscape:tile-y0="0" />
    <path
       inkscape:tile-y0="0"
       inkscape:tile-x0="0"
       inkscape:tile-h="16"
       inkscape:tile-w="16"
       inkscape:tile-cy="8"
       inkscape:tile-cx="8"
       transform="translate(64,1020.3622)"
       d="M 16,8 A 8,8 0 1 1 0,8 8,8 0 1 1 16,8 z"
       sodipodi:ry="8"
       sodipodi:rx="8"
       sodipodi:cy="8"
       sodipodi:cx="8"
       id="path3501"
       style="fill:#ff0000;fill-opacity:1;stroke:none"
       sodipodi:type="arc" />
    <path
       sodipodi:type="arc"
       style="fill:#0000ff;fill-opacity:1;stroke:none"
       id="path3503"
       sodipodi:cx="8"
       sodipodi:cy="8"
       sodipodi:rx="8"
       sodipodi:ry="8"
       d="M 16,8 A 8,8 0 1 1 0,8 8,8 0 1 1 16,8 z"
       transform="translate(80,1020.3622)"
       inkscape:tile-x0="0"
       inkscape:tile-y0="0" />
    <path
       sodipodi:type="arc"
       style="fill:#00ff00;fill-opacity:0.0627451;stroke:none"
       id="path3505"
       sodipodi:cx="8"
       sodipodi:cy="8"
       sodipodi:rx="8"
       sodipodi:ry="8"
       d="M 16,8 A 8,8 0 1 1 0,8 8,8 0 1 1 16,8 z"
       transform="translate(96,1020.3622)"
       inkscape:tile-x0="0"
       inkscape:tile-y0="0" />
    <path
       sodipodi:type="arc"
       style="fill:#ffff00;fill-opacity:1;stroke:none"
       id="path3507"
       sodipodi:cx="8"
       sodipodi:cy="8"
       sodipodi:rx="8"
       sodipodi:ry="8"
       d="M 16,8 A 8,8 0 1 1 0,8 8,8 0 1 1 16,8 z"
       transform="translate(112,1020.3622)"
       inkscape:tile-x0="0"
       inkscape:tile-y0="0" />
    <path
       inkscape:tile-y0="0"
       inkscape:tile-x0="0"
       inkscape:tile-h="16"
       inkscape:tile-w="16"
       inkscape:tile-cy="8"
       inkscape:tile-cx="8"
       transform="translate(64,1036.3622)"
       d="M 16,8 A 8,8 0 1 1 0,8 8,8 0 1 1 16,8 z"
       sodipodi:ry="8"
       sodipodi:rx="8"
       sodipodi:cy="8"
       sodipodi:cx="8"
       id="path3511"
       style="fill:#ff0000;fill-opacity:1;stroke:none"
       sodipodi:type="arc" />
    <path
       sodipodi:type="arc"
       style="fill:#0000ff;fill-opacity:1;stroke:none"
       id="path3513"
       sodipodi:cx="8"
       sodipodi:cy="8"
       sodipodi:rx="8"
       sodipodi:ry="8"
       d="M 16,8 A 8,8 0 1 1 0,8 8,8 0 1 1 16,8 z"
       transform="translate(80,1036.3622)"
       inkscape:tile-x0="0"
       inkscape:tile-y0="0" />
    <path
       sodipodi:type="arc"
       style="fill:#00ff00;fill-opacity:1;stroke:none"
       id="path3515"
       sodipodi:cx="8"
       sodipodi:cy="8"
       sodipodi:rx="8"
       sodipodi:ry="8"
       d="M 16,8 A 8,8 0 1 1 0,8 8,8 0 1 1 16,8 z"
       transform="translate(96,1036.3622)"
       inkscape:tile-x0="0"
       inkscape:tile-y0="0" />
    <path
       sodipodi:type="arc"
       style="fill:#ffff00;fill-opacity:0;stroke:none"
       id="path3517"
       sodipodi:cx="8"
       sodipodi:cy="8"
       sodipodi:rx="8"
       sodipodi:ry="8"
       d="M 16,8 A 8,8 0 1 1 0,8 8,8 0 1 1 16,8 z"
       transform="translate(112,1036.3622)"
       inkscape:tile-x0="0"
       inkscape:tile-y0="0" />
  </g>
</svg>
